<?xml version="1.0" encoding="UTF-8" standalone="no"?>
<!-- Created with Inkscape (http://www.inkscape.org/) -->

<svg
   width="64"
   height="64"
   viewBox="0 0 16.933333 16.933333"
   version="1.1"
   id="svg5"
   xml:space="preserve"
   inkscape:version="1.2.2 (732a01da63, 2022-12-09)"
   sodipodi:docname="DatePickerGO.svg"
   inkscape:export-filename="DatePickerGO.png"
   inkscape:export-xdpi="96"
   inkscape:export-ydpi="96"
   xmlns:inkscape="http://www.inkscape.org/namespaces/inkscape"
   xmlns:sodipodi="http://sodipodi.sourceforge.net/DTD/sodipodi-0.dtd"
   xmlns="http://www.w3.org/2000/svg"
   xmlns:svg="http://www.w3.org/2000/svg"><sodipodi:namedview
     id="namedview7"
     pagecolor="#ffffff"
     bordercolor="#000000"
     borderopacity="0.25"
     inkscape:showpageshadow="2"
     inkscape:pageopacity="0"
     inkscape:pagecheckerboard="true"
     inkscape:deskcolor="#d1d1d1"
     inkscape:document-units="mm"
     showgrid="false"
     inkscape:zoom="8.6980483"
     inkscape:cx="10.692054"
     inkscape:cy="38.859292"
     inkscape:window-width="1920"
     inkscape:window-height="1017"
     inkscape:window-x="-8"
     inkscape:window-y="-8"
     inkscape:window-maximized="1"
     inkscape:current-layer="layer1" /><defs
     id="defs2" /><g
     inkscape:label="Réteg 1"
     inkscape:groupmode="layer"
     id="layer1"><rect
       style="fill:#448e3a;fill-opacity:1;stroke:none;stroke-width:0.2;stroke-linejoin:round"
       id="rect381"
       width="16.933332"
       height="16.933332"
       x="0"
       y="0"
       rx="3"
       ry="3" /><g
       style="overflow:hidden;fill:#7ad974;fill-opacity:1"
       id="g144"
       transform="matrix(0.01591228,0,0,0.01591228,0.31923597,0.33252585)"><path
         d="m 974.956,240.425 a 92.093,92.093 0 0 0 -69.243,-94.863 607.534,607.534 0 0 0 -81.7,-4.158 v 58.163 A 78.244,78.244 0 0 1 717.379,268.805 80.343,80.343 0 0 1 668.216,193.326 V 140.713 H 355.241 v 38.083 c 0.701,9.216 0.701,18.483 0,27.704 -4.716,42.757 -43.07,73.687 -85.857,69.232 -40.684,-5.324 -70.656,-40.698 -69.243,-81.704 V 142.1 h -69.233 a 47.053,47.053 0 0 0 -12.467,0 94.853,94.853 0 0 0 -69.243,93.476 v 637.712 a 94.188,94.188 0 0 0 23.552,70.318 94.188,94.188 0 0 0 67.154,31.462 H 877.322 A 94.874,94.874 0 0 0 974.95,873.974 V 240.425 Z m -60.928,216.028 v 383.59 a 59.576,59.576 0 0 1 -6.237,26.317 28.39,28.39 0 0 1 -27.003,13.85 H 142.674 A 32.553,32.553 0 0 1 106.67,842.824 V 398.986 h 806.656 z m 0,0"
         id="path132"
         style="fill:#7ad974;fill-opacity:1" /><path
         d="m 277.693,238.346 a 47.043,47.043 0 0 0 33.147,-15.012 47.048,47.048 0 0 0 12.555,-34.15 V 96.399 A 49.193,49.193 0 0 0 314.394,62.469 44.319,44.319 0 0 0 263.844,50.703 46.387,46.387 0 0 0 231.3,95.708 v 94.172 a 47.78,47.78 0 0 0 46.392,48.466 z m 465.306,0 a 47.063,47.063 0 0 0 33.147,-15.012 47.043,47.043 0 0 0 12.549,-34.15 V 96.399 a 49.188,49.188 0 0 0 -12.462,-33.93 44.319,44.319 0 0 0 -50.55,-11.766 46.387,46.387 0 0 0 -29.081,44.314 v 94.167 a 47.826,47.826 0 0 0 13.004,34.202 47.831,47.831 0 0 0 33.394,14.96 z m -14.54,481.92 h 121.86 v 94.172 H 728.46 v -94.172 z m -186.266,0 h 121.866 v 94.172 H 542.193 Z m -186.256,94.167 h 122.558 v -95.56 H 355.937 Z M 169.682,720.266 h 121.866 v 94.172 H 169.682 Z M 728.458,591.468 H 850.32 V 685.64 H 728.46 v -94.172 z m -186.265,0.696 h 121.866 v 94.172 H 542.193 Z m -186.256,0 h 121.861 v 94.172 h -121.86 v -94.172 z m -63.703,0 H 170.368 v 94.172 H 292.234 Z M 727.767,464.077 h 121.866 v 94.162 H 727.767 Z m -185.574,0 h 121.866 v 94.162 H 542.193 Z m -63.698,0 H 355.937 v 94.162 h 122.558 z m 0,0"
         id="path134"
         style="fill:#7ad974;fill-opacity:1" /></g><g
       id="g8846"
       transform="translate(-0.81267255,0.49801588)"><path
         d="M 15.284445,10.626986 8.1618175,7.9664385 10.825497,15.08176 l 1.578167,-1.57608 2.291056,2.288447 1.303658,-1.302614 -2.291056,-2.288447 z"
         fill="#00ffb0"
         id="path304"
         style="fill:#7ad974;fill-opacity:1;stroke:none;stroke-width:0.0117219;stroke-opacity:1" /><path
         d="m 14.38107,12.224985 1.239988,-1.239466 A 0.47647709,0.47647709 0 0 0 15.450925,10.202697 L 8.3282974,7.5431933 A 0.47595521,0.47595521 0 0 0 7.7166533,8.1553594 l 2.6636787,7.1153216 a 0.47543332,0.47543332 0 0 0 0.781778,0.169611 l 1.242076,-1.239988 1.954443,1.952355 a 0.4733458,0.4733458 0 0 0 0.672182,0 l 1.30418,-1.302092 a 0.47491145,0.47491145 0 0 0 0,-0.673226 z m 0.313128,2.918357 -1.954443,-1.952878 a 0.47386768,0.47386768 0 0 0 -0.673226,0 l -1.054721,1.0542 -2.0384661,-5.4453038 5.4505221,2.0353348 -1.054199,1.053155 a 0.47647709,0.47647709 0 0 0 5.22e-4,0.673226 l 1.954443,1.951834 -0.630432,0.62991 z M 6.667673,5.8225526 A 0.47595521,0.47595521 0 1 0 5.9949688,6.4957787 L 6.435958,6.9367679 6.6619323,7.1622204 a 0.47438957,0.47438957 0 0 0 0.6732262,-5.217e-4 0.47543332,0.47543332 0 0 0 -5.216e-4,-0.673226 z m 3.1876473,0.46343 V 5.3450318 a 0.47595521,0.47595521 0 0 0 -0.9519104,0 v 0.9409508 a 0.47595521,0.47595521 0 0 0 0.9519104,0 z M 6.9458354,9.1933801 A 0.47595521,0.47595521 0 0 0 6.4698802,8.717425 H 5.5273636 a 0.47595521,0.47595521 0 0 0 0,0.9519103 H 6.4698802 A 0.47595521,0.47595521 0 0 0 6.9458354,9.1933801 Z"
         fill="#000a64"
         id="path306"
         style="fill:#000000;stroke:none;stroke-width:0.0117219;stroke-opacity:1" /></g></g></svg>
